<svg width="800" height="1500" xmlns="http://www.w3.org/2000/svg">
  <!-- Background -->
  <rect width="800" height="1500" fill="#f8f9fa"/>
  
  <!-- Header -->
  <rect x="0" y="0" width="800" height="80" fill="#ffffff" stroke="#e9ecef" stroke-width="1"/>
  <text x="30" y="50" font-family="Arial" font-size="24" font-weight="bold" fill="#212529">School Finder</text>
  
  <!-- Navigation -->
  <rect x="500" y="30" width="80" height="30" rx="5" fill="#ffffff" stroke="#dee2e6" stroke-width="1"/>
  <text x="520" y="50" font-family="Arial" font-size="14" fill="#495057">Search</text>
  
  <rect x="600" y="30" width="80" height="30" rx="5" fill="#ffffff" stroke="#dee2e6" stroke-width="1"/>
  <text x="620" y="50" font-family="Arial" font-size="14" fill="#495057">Login</text>
  
  <rect x="700" y="30" width="80" height="30" rx="5" fill="#ffffff" stroke="#dee2e6" stroke-width="1"/>
  <text x="720" y="50" font-family="Arial" font-size="14" fill="#495057">Profile</text>
  
  <!-- School Header -->
  <rect x="0" y="80" width="800" height="250" fill="#e9ecef"/>
  <circle cx="150" cy="180" r="80" fill="#ffffff" stroke="#dee2e6" stroke-width="2"/>
  <text x="150" y="180" font-family="Arial" font-size="24" fill="#adb5bd" text-anchor="middle">School Logo</text>
  
  <text x="280" y="140" font-family="Arial" font-size="32" font-weight="bold" fill="#212529">Warsaw International School</text>
  <text x="280" y="180" font-family="Arial" font-size="18" fill="#6c757d">International • Private • Grades K-12</text>
  <text x="280" y="210" font-family="Arial" font-size="16" fill="#6c757d">Mokotów, Warsaw</text>
  
  <!-- Rating -->
  <rect x="280" y="230" width="120" height="40" rx="20" fill="#28a745"/>
  <text x="300" y="257" font-family="Arial" font-size="18" font-weight="bold" fill="#ffffff">★ 4.8/5.0</text>
  
  <!-- Action Buttons -->
  <rect x="600" y="230" width="150" height="40" rx="20" fill="#007bff"/>
  <text x="630" y="257" font-family="Arial" font-size="16" font-weight="bold" fill="#ffffff">Add to Favorites</text>
  
  <!-- Tabs Navigation -->
  <rect x="0" y="330" width="800" height="50" fill="#ffffff" stroke="#dee2e6" stroke-width="1"/>
  
  <rect x="50" y="330" width="120" height="50" fill="#007bff"/>
  <text x="85" y="360" font-family="Arial" font-size="16" font-weight="bold" fill="#ffffff">Overview</text>
  
  <rect x="170" y="330" width="120" height="50" fill="#ffffff"/>
  <text x="205" y="360" font-family="Arial" font-size="16" fill="#495057">Programs</text>
  
  <rect x="290" y="330" width="120" height="50" fill="#ffffff"/>
  <text x="325" y="360" font-family="Arial" font-size="16" fill="#495057">Facilities</text>
  
  <rect x="410" y="330" width="120" height="50" fill="#ffffff"/>
  <text x="445" y="360" font-family="Arial" font-size="16" fill="#495057">Reviews</text>
  
  <rect x="530" y="330" width="120" height="50" fill="#ffffff"/>
  <text x="565" y="360" font-family="Arial" font-size="16" fill="#495057">Contact</text>
  
  <!-- Overview Section -->
  <rect x="50" y="400" width="700" height="200" rx="10" fill="#ffffff" stroke="#dee2e6" stroke-width="1"/>
  <text x="70" y="430" font-family="Arial" font-size="20" font-weight="bold" fill="#212529">About the School</text>
  <rect x="70" y="450" width="660" height="130" fill="#ffffff"/>
  <text x="70" y="470" font-family="Arial" font-size="14" fill="#495057">Warsaw International School is a leading educational institution offering the International Baccalaureate program. Founded in 1985, the school provides a comprehensive education for students from kindergarten through grade 12.</text>
  <text x="70" y="500" font-family="Arial" font-size="14" fill="#495057">The school emphasizes academic excellence, cultural diversity, and personal development. With small class sizes and experienced teachers, students receive individualized attention and support.</text>
  <text x="70" y="530" font-family="Arial" font-size="14" fill="#495057">The curriculum includes a strong focus on languages, sciences, arts, and physical education, preparing students for success in higher education and beyond.</text>
  
  <!-- Key Information -->
  <rect x="50" y="620" width="340" height="250" rx="10" fill="#ffffff" stroke="#dee2e6" stroke-width="1"/>
  <text x="70" y="650" font-family="Arial" font-size="20" font-weight="bold" fill="#212529">Key Information</text>
  
  <text x="70" y="690" font-family="Arial" font-size="16" font-weight="bold" fill="#495057">Type:</text>
  <text x="200" y="690" font-family="Arial" font-size="16" fill="#495057">International, Private</text>
  
  <text x="70" y="720" font-family="Arial" font-size="16" font-weight="bold" fill="#495057">Grades:</text>
  <text x="200" y="720" font-family="Arial" font-size="16" fill="#495057">Kindergarten - Grade 12</text>
  
  <text x="70" y="750" font-family="Arial" font-size="16" font-weight="bold" fill="#495057">Languages:</text>
  <text x="200" y="750" font-family="Arial" font-size="16" fill="#495057">English, Polish</text>
  
  <text x="70" y="780" font-family="Arial" font-size="16" font-weight="bold" fill="#495057">Curriculum:</text>
  <text x="200" y="780" font-family="Arial" font-size="16" fill="#495057">International Baccalaureate</text>
  
  <text x="70" y="810" font-family="Arial" font-size="16" font-weight="bold" fill="#495057">Student-Teacher Ratio:</text>
  <text x="200" y="810" font-family="Arial" font-size="16" fill="#495057">12:1</text>
  
  <text x="70" y="840" font-family="Arial" font-size="16" font-weight="bold" fill="#495057">Established:</text>
  <text x="200" y="840" font-family="Arial" font-size="16" fill="#495057">1985</text>
  
  <!-- Location Map -->
  <rect x="410" y="620" width="340" height="250" rx="10" fill="#ffffff" stroke="#dee2e6" stroke-width="1"/>
  <text x="430" y="650" font-family="Arial" font-size="20" font-weight="bold" fill="#212529">Location</text>
  <rect x="430" y="670" width="300" height="180" fill="#e9ecef"/>
  <text x="580" y="760" font-family="Arial" font-size="16" fill="#6c757d" text-anchor="middle">Map View</text>
  
  <!-- Ratings & Reviews -->
  <rect x="50" y="890" width="700" height="300" rx="10" fill="#ffffff" stroke="#dee2e6" stroke-width="1"/>
  <text x="70" y="920" font-family="Arial" font-size="20" font-weight="bold" fill="#212529">Ratings & Reviews</text>
  
  <!-- Rating Breakdown -->
  <text x="70" y="960" font-family="Arial" font-size="16" font-weight="bold" fill="#495057">Overall Rating:</text>
  <rect x="200" y="950" width="200" height="20" rx="10" fill="#e9ecef"/>
  <rect x="200" y="950" width="180" height="20" rx="10" fill="#28a745"/>
  <text x="410" y="965" font-family="Arial" font-size="16" font-weight="bold" fill="#212529">4.8/5.0</text>
  
  <text x="70" y="990" font-family="Arial" font-size="16" font-weight="bold" fill="#495057">Academic Quality:</text>
  <rect x="200" y="980" width="200" height="20" rx="10" fill="#e9ecef"/>
  <rect x="200" y="980" width="190" height="20" rx="10" fill="#28a745"/>
  <text x="410" y="995" font-family="Arial" font-size="16" font-weight="bold" fill="#212529">4.9/5.0</text>
  
  <text x="70" y="1020" font-family="Arial" font-size="16" font-weight="bold" fill="#495057">Facilities:</text>
  <rect x="200" y="1010" width="200" height="20" rx="10" fill="#e9ecef"/>
  <rect x="200" y="1010" width="170" height="20" rx="10" fill="#28a745"/>
  <text x="410" y="1025" font-family="Arial" font-size="16" font-weight="bold" fill="#212529">4.7/5.0</text>
  
  <text x="70" y="1050" font-family="Arial" font-size="16" font-weight="bold" fill="#495057">Teacher Quality:</text>
  <rect x="200" y="1040" width="200" height="20" rx="10" fill="#e9ecef"/>
  <rect x="200" y="1040" width="180" height="20" rx="10" fill="#28a745"/>
  <text x="410" y="1055" font-family="Arial" font-size="16" font-weight="bold" fill="#212529">4.8/5.0</text>
  
  <text x="70" y="1080" font-family="Arial" font-size="16" font-weight="bold" fill="#495057">Extracurricular:</text>
  <rect x="200" y="1070" width="200" height="20" rx="10" fill="#e9ecef"/>
  <rect x="200" y="1070" width="160" height="20" rx="10" fill="#28a745"/>
  <text x="410" y="1085" font-family="Arial" font-size="16" font-weight="bold" fill="#212529">4.6/5.0</text>
  
  <!-- Submit Rating -->
  <rect x="70" y="1120" width="200" height="40" rx="20" fill="#007bff"/>
  <text x="110" y="1145" font-family="Arial" font-size="16" font-weight="bold" fill="#ffffff">Submit Your Rating</text>
  
  <!-- Contact Information -->
  <rect x="50" y="1210" width="700" height="200" rx="10" fill="#ffffff" stroke="#dee2e6" stroke-width="1"/>
  <text x="70" y="1240" font-family="Arial" font-size="20" font-weight="bold" fill="#212529">Contact Information</text>
  
  <text x="70" y="1280" font-family="Arial" font-size="16" font-weight="bold" fill="#495057">Address:</text>
  <text x="200" y="1280" font-family="Arial" font-size="16" fill="#495057">ul. Warszawska 123, 00-001 Warsaw, Poland</text>
  
  <text x="70" y="1310" font-family="Arial" font-size="16" font-weight="bold" fill="#495057">Phone:</text>
  <text x="200" y="1310" font-family="Arial" font-size="16" fill="#495057">+48 22 123 4567</text>
  
  <text x="70" y="1340" font-family="Arial" font-size="16" font-weight="bold" fill="#495057">Email:</text>
  <text x="200" y="1340" font-family="Arial" font-size="16" fill="#495057">info@warsawinternationalschool.pl</text>
  
  <text x="70" y="1370" font-family="Arial" font-size="16" font-weight="bold" fill="#495057">Website:</text>
  <text x="200" y="1370" font-family="Arial" font-size="16" fill="#007bff">www.warsawinternationalschool.pl</text>
  
  <!-- Footer -->
  <rect x="0" y="1430" width="800" height="70" fill="#343a40"/>
  <text x="400" y="1470" font-family="Arial" font-size="14" fill="#ffffff" text-anchor="middle">© 2023 School Finder | Privacy Policy | Terms of Service</text>
</svg>