<svg width="800" height="1600" xmlns="http://www.w3.org/2000/svg">
  <!-- Background -->
  <rect width="800" height="1600" fill="#f8f9fa"/>
  
  <!-- Header with Gradient -->
  <linearGradient id="header-gradient" x1="0%" y1="0%" x2="0%" y2="100%">
    <stop offset="0%" style="stop-color:#ffffff;stop-opacity:1" />
    <stop offset="100%" style="stop-color:#f8f9fa;stop-opacity:1" />
  </linearGradient>
  <rect x="0" y="0" width="800" height="80" fill="url(#header-gradient)" stroke="#e9ecef" stroke-width="1"/>
  
  <!-- Logo -->
  <circle cx="40" cy="40" r="20" fill="#007bff"/>
  <text x="70" y="50" font-family="Arial" font-size="24" font-weight="bold" fill="#212529">School Finder</text>
  
  <!-- Navigation with Hover Effect -->
  <rect x="500" y="30" width="80" height="30" rx="5" fill="#ffffff" stroke="#dee2e6" stroke-width="1">
    <animate attributeName="fill" values="#ffffff;#e9ecef;#ffffff" dur="2s" begin="mouseover" repeatCount="1"/>
  </rect>
  <text x="520" y="50" font-family="Arial" font-size="14" fill="#495057">Search</text>
  
  <rect x="600" y="30" width="80" height="30" rx="5" fill="#ffffff" stroke="#dee2e6" stroke-width="1">
    <animate attributeName="fill" values="#ffffff;#e9ecef;#ffffff" dur="2s" begin="mouseover" repeatCount="1"/>
  </rect>
  <text x="620" y="50" font-family="Arial" font-size="14" fill="#495057">Login</text>
  
  <rect x="700" y="30" width="80" height="30" rx="5" fill="#ffffff" stroke="#dee2e6" stroke-width="1">
    <animate attributeName="fill" values="#ffffff;#e9ecef;#ffffff" dur="2s" begin="mouseover" repeatCount="1"/>
  </rect>
  <text x="720" y="50" font-family="Arial" font-size="14" fill="#495057">Profile</text>
  
  <!-- Region Header with Gradient Background -->
  <linearGradient id="region-gradient" x1="0%" y1="0%" x2="100%" y2="100%">
    <stop offset="0%" style="stop-color:#e9ecef;stop-opacity:1" />
    <stop offset="100%" style="stop-color:#ffffff;stop-opacity:1" />
  </linearGradient>
  <rect x="0" y="80" width="800" height="150" fill="url(#region-gradient)"/>
  
  <!-- Region Title and Info -->
  <text x="50" y="130" font-family="Arial" font-size="36" font-weight="bold" fill="#212529">Warsaw</text>
  <text x="50" y="170" font-family="Arial" font-size="18" fill="#6c757d">125 schools • Capital city • Central Poland</text>
  
  <!-- Breadcrumb Navigation -->
  <text x="50" y="100" font-family="Arial" font-size="14" fill="#6c757d">Home > Regions > Warsaw</text>
  
  <!-- Filter Section with Shadow -->
  <filter id="shadow" x="-20%" y="-20%" width="140%" height="140%">
    <feDropShadow dx="0" dy="4" stdDeviation="4" flood-color="#000000" flood-opacity="0.15"/>
  </filter>
  <rect x="50" y="230" width="700" height="80" rx="10" fill="#ffffff" stroke="#dee2e6" stroke-width="1" filter="url(#shadow)"/>
  
  <!-- Filter Options -->
  <text x="70" y="260" font-family="Arial" font-size="16" font-weight="bold" fill="#212529">Filter Schools:</text>
  
  <!-- Filter Dropdowns -->
  <rect x="70" y="270" width="120" height="30" rx="5" fill="#ffffff" stroke="#ced4da" stroke-width="1"/>
  <text x="85" y="290" font-family="Arial" font-size="14" fill="#495057">Type ▼</text>
  
  <rect x="200" y="270" width="120" height="30" rx="5" fill="#ffffff" stroke="#ced4da" stroke-width="1"/>
  <text x="215" y="290" font-family="Arial" font-size="14" fill="#495057">Rating ▼</text>
  
  <rect x="330" y="270" width="120" height="30" rx="5" fill="#ffffff" stroke="#ced4da" stroke-width="1"/>
  <text x="345" y="290" font-family="Arial" font-size="14" fill="#495057">District ▼</text>
  
  <!-- Search Bar -->
  <rect x="460" y="270" width="180" height="30" rx="5" fill="#ffffff" stroke="#ced4da" stroke-width="1"/>
  <text x="475" y="290" font-family="Arial" font-size="14" fill="#adb5bd">Search in Warsaw...</text>
  
  <!-- Search Button with Gradient -->
  <linearGradient id="button-gradient" x1="0%" y1="0%" x2="100%" y2="100%">
    <stop offset="0%" style="stop-color:#0d6efd;stop-opacity:1" />
    <stop offset="100%" style="stop-color:#0a58ca;stop-opacity:1" />
  </linearGradient>
  <rect x="650" y="270" width="80" height="30" rx="5" fill="url(#button-gradient)"/>
  <text x="670" y="290" font-family="Arial" font-size="14" font-weight="bold" fill="#ffffff">Search</text>
  
  <!-- View Toggle -->
  <rect x="600" y="230" width="150" height="30" rx="15" fill="#e9ecef"/>
  <rect x="600" y="230" width="75" height="30" rx="15" fill="url(#button-gradient)"/>
  <text x="615" y="250" font-family="Arial" font-size="14" font-weight="bold" fill="#ffffff">Map</text>
  <text x="690" y="250" font-family="Arial" font-size="14" fill="#495057">List</text>
  
  <!-- Map View with Interactive Elements -->
  <rect x="50" y="330" width="700" height="400" rx="10" fill="#e9ecef" stroke="#dee2e6" stroke-width="1"/>
  
  <!-- Map Controls -->
  <rect x="710" y="340" width="30" height="60" rx="5" fill="#ffffff" stroke="#dee2e6" stroke-width="1"/>
  <text x="720" y="365" font-family="Arial" font-size="18" font-weight="bold" fill="#212529">+</text>
  <line x1="710" y1="370" x2="740" y2="370" stroke="#dee2e6" stroke-width="1"/>
  <text x="720" y="390" font-family="Arial" font-size="18" font-weight="bold" fill="#212529">-</text>
  
  <!-- Map Markers with Tooltips -->
  <!-- Marker 1 with Tooltip -->
  <circle cx="200" cy="450" r="10" fill="#007bff">
    <animate attributeName="r" values="10;12;10" dur="2s" repeatCount="indefinite"/>
  </circle>
  <text x="200" y="455" font-family="Arial" font-size="12" font-weight="bold" fill="#ffffff" text-anchor="middle">1</text>
  
  <!-- Tooltip for Marker 1 -->
  <rect x="150" y="400" width="200" height="40" rx="5" fill="#ffffff" stroke="#dee2e6" stroke-width="1" opacity="0.9"/>
  <text x="160" y="420" font-family="Arial" font-size="12" font-weight="bold" fill="#212529">Warsaw International School</text>
  <text x="160" y="435" font-family="Arial" font-size="12" fill="#6c757d">★★★★★ 4.8 • International</text>
  
  <!-- Marker 2 -->
  <circle cx="350" cy="500" r="10" fill="#007bff"/>
  <text x="350" y="505" font-family="Arial" font-size="12" font-weight="bold" fill="#ffffff" text-anchor="middle">2</text>
  
  <!-- Marker 3 -->
  <circle cx="500" cy="400" r="10" fill="#007bff"/>
  <text x="500" y="405" font-family="Arial" font-size="12" font-weight="bold" fill="#ffffff" text-anchor="middle">3</text>
  
  <!-- Marker 4 -->
  <circle cx="600" cy="550" r="10" fill="#007bff"/>
  <text x="600" y="555" font-family="Arial" font-size="12" font-weight="bold" fill="#ffffff" text-anchor="middle">4</text>
  
  <!-- Marker 5 -->
  <circle cx="250" cy="600" r="10" fill="#007bff"/>
  <text x="250" y="605" font-family="Arial" font-size="12" font-weight="bold" fill="#ffffff" text-anchor="middle">5</text>
  
  <!-- School List Title -->
  <text x="50" y="770" font-family="Arial" font-size="24" font-weight="bold" fill="#212529">Schools in Warsaw</text>
  <line x1="50" y1="780" x2="250" y2="780" stroke="#007bff" stroke-width="3"/>
  
  <!-- Enhanced School Cards with Rating Indicators -->
  <rect x="50" y="800" width="700" height="140" rx="10" fill="#ffffff" stroke="#dee2e6" stroke-width="1" filter="url(#shadow)"/>
  <!-- School Logo -->
  <circle cx="110" cy="870" r="45" fill="#e9ecef"/>
  <text x="110" y="875" font-family="Arial" font-size="14" fill="#6c757d" text-anchor="middle">LOGO</text>
  
  <text x="180" y="840" font-family="Arial" font-size="20" font-weight="bold" fill="#212529">Warsaw International School</text>
  <text x="180" y="865" font-family="Arial" font-size="16" fill="#6c757d">Mokotów • International</text>
  
  <!-- Rating Stars -->
  <rect x="180" y="880" width="120" height="30" rx="15" fill="#28a745"/>
  <text x="195" y="900" font-family="Arial" font-size="16" font-weight="bold" fill="#ffffff">★★★★★ 4.8</text>
  
  <!-- Distance -->
  <text x="320" y="900" font-family="Arial" font-size="14" fill="#6c757d">2.5 km from center</text>
  
  <!-- View Button -->
  <rect x="620" y="855" width="100" height="30" rx="15" fill="url(#button-gradient)"/>
  <text x="645" y="875" font-family="Arial" font-size="14" font-weight="bold" fill="#ffffff">View →</text>
  
  <rect x="50" y="960" width="700" height="140" rx="10" fill="#ffffff" stroke="#dee2e6" stroke-width="1" filter="url(#shadow)"/>
  <!-- School Logo -->
  <circle cx="110" cy="1030" r="45" fill="#e9ecef"/>
  <text x="110" y="1035" font-family="Arial" font-size="14" fill="#6c757d" text-anchor="middle">LOGO</text>
  
  <text x="180" y="1000" font-family="Arial" font-size="20" font-weight="bold" fill="#212529">Warsaw Academy of Science</text>
  <text x="180" y="1025" font-family="Arial" font-size="16" fill="#6c757d">Śródmieście • Private</text>
  
  <!-- Rating Stars -->
  <rect x="180" y="1040" width="120" height="30" rx="15" fill="#28a745"/>
  <text x="195" y="1060" font-family="Arial" font-size="16" font-weight="bold" fill="#ffffff">★★★★☆ 4.7</text>
  
  <!-- Distance -->
  <text x="320" y="1060" font-family="Arial" font-size="14" fill="#6c757d">1.2 km from center</text>
  
  <!-- View Button -->
  <rect x="620" y="1015" width="100" height="30" rx="15" fill="url(#button-gradient)"/>
  <text x="645" y="1035" font-family="Arial" font-size="14" font-weight="bold" fill="#ffffff">View →</text>
  
  <rect x="50" y="1120" width="700" height="140" rx="10" fill="#ffffff" stroke="#dee2e6" stroke-width="1" filter="url(#shadow)"/>
  <!-- School Logo -->
  <circle cx="110" cy="1190" r="45" fill="#e9ecef"/>
  <text x="110" y="1195" font-family="Arial" font-size="14" fill="#6c757d" text-anchor="middle">LOGO</text>
  
  <text x="180" y="1160" font-family="Arial" font-size="20" font-weight="bold" fill="#212529">Warsaw Public School #12</text>
  <text x="180" y="1185" font-family="Arial" font-size="16" fill="#6c757d">Wola • Public</text>
  
  <!-- Rating Stars -->
  <rect x="180" y="1200" width="120" height="30" rx="15" fill="#ffc107"/>
  <text x="195" y="1220" font-family="Arial" font-size="16" font-weight="bold" fill="#ffffff">★★★☆☆ 3.5</text>
  
  <!-- Distance -->
  <text x="320" y="1220" font-family="Arial" font-size="14" fill="#6c757d">4.8 km from center</text>
  
  <!-- View Button -->
  <rect x="620" y="1175" width="100" height="30" rx="15" fill="url(#button-gradient)"/>
  <text x="645" y="1195" font-family="Arial" font-size="14" font-weight="bold" fill="#ffffff">View →</text>
  
  <!-- Pagination -->
  <rect x="300" y="1280" width="200" height="40" rx="5" fill="#ffffff" stroke="#dee2e6" stroke-width="1"/>
  <text x="320" y="1305" font-family="Arial" font-size="14" fill="#6c757d">← Previous</text>
  <circle cx="400" cy="1300" r="15" fill="url(#button-gradient)"/>
  <text x="400" y="1305" font-family="Arial" font-size="14" font-weight="bold" fill="#ffffff" text-anchor="middle">1</text>
  <circle cx="440" cy="1300" r="15" fill="#e9ecef"/>
  <text x="440" y="1305" font-family="Arial" font-size="14" fill="#6c757d" text-anchor="middle">2</text>
  <text x="470" y="1305" font-family="Arial" font-size="14" fill="#6c757d">Next →</text>
  
  <!-- Newsletter/Signup Promo Section -->
  <rect x="0" y="1350" width="800" height="150" fill="#e9ecef"/>
  <text x="400" y="1390" font-family="Arial" font-size="24" font-weight="bold" fill="#212529" text-anchor="middle">Stay Updated with School Finder</text>
  <text x="400" y="1420" font-family="Arial" font-size="16" fill="#6c757d" text-anchor="middle">Get the latest school information and personalized recommendations</text>
  
  <!-- Email Signup -->
  <rect x="200" y="1440" width="300" height="40" rx="5" fill="#ffffff" stroke="#ced4da" stroke-width="1"/>
  <text x="220" y="1465" font-family="Arial" font-size="14" fill="#adb5bd">Your email address</text>
  
  <!-- Subscribe Button -->
  <rect x="510" y="1440" width="100" height="40" rx="5" fill="url(#button-gradient)"/>
  <text x="525" y="1465" font-family="Arial" font-size="14" font-weight="bold" fill="#ffffff">Subscribe</text>
  
  <!-- Footer -->
  <rect x="0" y="1500" width="800" height="100" fill="#343a40"/>
  
  <!-- Footer Links -->
  <text x="50" y="1535" font-family="Arial" font-size="14" fill="#ffffff">About Us</text>
  <text x="150" y="1535" font-family="Arial" font-size="14" fill="#ffffff">Contact</text>
  <text x="250" y="1535" font-family="Arial" font-size="14" fill="#ffffff">Privacy Policy</text>
  <text x="380" y="1535" font-family="Arial" font-size="14" fill="#ffffff">Terms of Service</text>
  
  <!-- Social Media Icons -->
  <circle cx="600" cy="1535" r="15" fill="#ffffff" opacity="0.2"/>
  <text x="600" y="1540" font-family="Arial" font-size="14" fill="#ffffff" text-anchor="middle">f</text>
  
  <circle cx="640" cy="1535" r="15" fill="#ffffff" opacity="0.2"/>
  <text x="640" y="1540" font-family="Arial" font-size="14" fill="#ffffff" text-anchor="middle">t</text>
  
  <circle cx="680" cy="1535" r="15" fill="#ffffff" opacity="0.2"/>
  <text x="680" y="1540" font-family="Arial" font-size="14" fill="#ffffff" text-anchor="middle">in</text>
  
  <!-- Copyright -->
  <text x="400" y="1570" font-family="Arial" font-size="12" fill="#adb5bd" text-anchor="middle">© 2023 School Finder. All rights reserved.</text>
</svg>